<svg version="1.1" xmlns="http://www.w3.org/2000/svg" xmlns:xlink="http://www.w3.org/1999/xlink" width="93.96019" height="100.93607" viewBox="0,0,93.96019,100.93607"><g transform="translate(-195.27634,-115.04249)"><g data-paper-data="{&quot;isPaintingLayer&quot;:true}" fill-rule="nonzero" stroke="#000000" stroke-width="2" stroke-linejoin="miter" stroke-miterlimit="10" stroke-dasharray="" stroke-dashoffset="0" style="mix-blend-mode: normal"><path d="M197.68389,122.61107l85.39161,0.93837l-46.91846,90.08345z" fill="#ffb900" stroke-linecap="round"/><path d="M234.74948,143.72438c0,3.88685 -3.25595,7.03777 -7.27236,7.03777c-4.01641,0 -7.27236,-3.15092 -7.27236,-7.03777c0,-3.88685 3.25595,-7.03777 7.27236,-7.03777c4.01641,0 7.27236,3.15092 7.27236,7.03777z" fill="#ff0000" stroke-linecap="butt"/><path d="M254.45523,157.56533c0,3.23904 -2.83583,5.86481 -6.33399,5.86481c-3.49817,0 -6.33399,-2.62576 -6.33399,-5.86481c0,-3.23904 2.83583,-5.86481 6.33399,-5.86481c3.49817,0 6.33399,2.62576 6.33399,5.86481z" fill="#ff0000" stroke-linecap="butt"/><path d="M241.31806,173.98679c0,4.01641 -3.46601,7.27236 -7.74155,7.27236c-4.27554,0 -7.74155,-3.25595 -7.74155,-7.27236c0,-4.01641 3.46601,-7.27236 7.74155,-7.27236c4.27554,0 7.74155,3.25595 7.74155,7.27236z" fill="#ff0000" stroke-linecap="butt"/><path d="M196.27634,128.24129v-12.1988h91.96019v12.1988z" fill="#e69d00" stroke-linecap="butt"/></g></g></svg>